<svg xmlns="http://www.w3.org/2000/svg" xmlns:xlink="http://www.w3.org/1999/xlink" width="40" height="40" viewBox="0 0 40 40" fill="none"><g opacity="0.6"  transform="translate(0 0)  rotate(0)"><mask id="bg-mask-0" fill="white"><use transform="translate(0 0)  rotate(0)" xlink:href="#path_0"></use></mask><g mask="url(#bg-mask-0)" ><path id="路径 1" fill-rule="evenodd" fill="url(#linear_0)" opacity="1" d="M36.6632,9.53l-2.14,2.55l-7.66,-6.42l2.15,-2.55zM13.1332,5.65l-7.65999,6.43l-2.14,-2.55l7.65999,-6.43zM20.8332,13.33v8.75l6.67,3.95l-1.26,2.06l-7.91,-4.76v-10zM19.9932,6.67c8.29,0 15.01,6.71 15.01,15c0,8.28 -6.72,15 -15.01,15c-8.29,0 -14.98999,-6.72 -14.98999,-15c0,-8.29 6.69999,-15 14.98999,-15zM31.6632,21.67c0,-6.44 -5.22,-11.67 -11.66,-11.67c-6.44,0 -11.66999,5.22 -11.66999,11.67c0,6.44 5.22999,11.66 11.66999,11.66c6.45,0 11.66,-5.22 11.66,-11.66z"></path><path id="路径 1" fill-rule="evenodd" fill="url(#linear_1)" opacity="1" d="M36.6632,9.53l-2.14,2.55l-7.66,-6.42l2.15,-2.55zM13.1332,5.65l-7.65999,6.43l-2.14,-2.55l7.65999,-6.43zM20.8332,13.33v8.75l6.67,3.95l-1.26,2.06l-7.91,-4.76v-10zM19.9932,6.67c8.29,0 15.01,6.71 15.01,15c0,8.28 -6.72,15 -15.01,15c-8.29,0 -14.98999,-6.72 -14.98999,-15c0,-8.29 6.69999,-15 14.98999,-15zM31.6632,21.67c0,-6.44 -5.22,-11.67 -11.66,-11.67c-6.44,0 -11.66999,5.22 -11.66999,11.67c0,6.44 5.22999,11.66 11.66999,11.66c6.45,0 11.66,-5.22 11.66,-11.66z"></path></g></g><defs><rect id="path_0" x="0" y="0" width="40" height="40" /><linearGradient id="linear_0" x1="50%" y1="50%" x2="100%" y2="50%" gradientUnits="objectBoundingBox"><stop offset="0" stop-color="#42E610" stop-opacity="1" /><stop offset="0.7501" stop-color="#B32929" stop-opacity="1" /></linearGradient><linearGradient id="linear_1" x1="50%" y1="50%" x2="100%" y2="50%" gradientUnits="objectBoundingBox"><stop offset="0" stop-color="#42E610" stop-opacity="0.1" /><stop offset="0.7501" stop-color="#D14343" stop-opacity="0.1" /></linearGradient></defs></svg>