<svg xmlns="http://www.w3.org/2000/svg" xmlns:xlink="http://www.w3.org/1999/xlink" width="39.999996185302734" height="40" viewBox="0 0 39.999996185302734 40" fill="none"><path id="主图标1" fill-rule="evenodd" fill="url(#linear_0)" opacity="1" d="M40,7.67l-2.57,3.03l-9.19,-7.65l2.57,-3.04zM11.76,3.04l-9.19,7.66l-2.57,-3.04l9.19,-7.66zM21,12.19v10.43l8,4.71l-1.51,2.45l-9.49,-5.67v-11.92zM19.99,4.25c9.95,0 18.01,8 18.01,17.88c0,9.87 -8.06,17.87 -18.01,17.87c-9.95,0 -17.99,-8 -17.99,-17.87c0,-9.88 8.04,-17.88 17.99,-17.88zM34,22.13c0,-7.68 -6.27,-13.91 -14,-13.91c-7.73,0 -14,6.23 -14,13.9c0,7.68 6.27,13.91 14,13.91c7.74,0 14,-6.23 14,-13.9z"></path><defs><linearGradient id="linear_0" x1="50%" y1="50%" x2="100%" y2="50%" gradientUnits="objectBoundingBox"><stop offset="0" stop-color="#42E610" stop-opacity="1" /><stop offset="0.7501" stop-color="#00BAAE" stop-opacity="1" /></linearGradient></defs></svg>