<svg xmlns="http://www.w3.org/2000/svg" xmlns:xlink="http://www.w3.org/1999/xlink" width="16" height="16" viewBox="0 0 16 16" fill="none"><g opacity="1"  transform="translate(0 0)  rotate(0)"><mask id="bg-mask-0" fill="white"><use transform="translate(0 0)  rotate(0)" xlink:href="#path_0"></use></mask><g mask="url(#bg-mask-0)" ><path id="路径 1" fill-rule="evenodd" style="fill:#D43030" opacity="1" d="M14.6633,3.81l-0.85,1.02l-3.07,-2.57l0.86,-1.02zM5.25328,2.26l-3.06,2.57l-0.86,-1.02l3.06,-2.57zM8.33328,5.33v3.5l2.67002,1.58l-0.51,0.83l-3.16002,-1.91v-4zM7.99328,2.67c3.32002,0 6.01002,2.68 6.01002,6c0,3.31 -2.69,6 -6.01002,6c-3.31,0 -5.99,-2.69 -5.99,-6c0,-3.32 2.68,-6 5.99,-6zM12.6633,8.67c0,-2.58 -2.09,-4.67 -4.66002,-4.67c-2.58,0 -4.67,2.09 -4.67,4.67c0,2.57 2.09,4.66 4.67,4.66c2.58002,0 4.66002,-2.09 4.66002,-4.66z"></path></g></g><defs><rect id="path_0" x="0" y="0" width="16" height="16" /></defs></svg>